# File created by Blade
# Date/Time:  Tue Jan 27 18:50:13 2015
#---------------------------------------------------------
:version 1.10
:name HOM
:units
  mass 1.0
  length 1.000000
  angle deg
:documentation
     Acclaim Skeleton File
:root
   axis xyz
   order TX TY TZ RX RY RZ
   position 0.000000 0.000000 0.000000
   orientation 0 0 0
:bonedata
   begin
      id 1
      name Spine_dum
      direction 0.000000 1.000000 0.000000
      length 5.195262
      axis 0.0 0.0 0.0 xyz
   end
   begin
      id 2
      name LeftUpLeg_dum
      direction 1.000000 0.000000 0.000000
      length 3.351363
      axis 0.0 0.0 0.0 xyz
   end
   begin
      id 3
      name RightUpLeg_dum
      direction -1.000000 0.000000 0.000000
      length 3.351363
      axis 0.0 0.0 0.0 xyz
   end
   begin
      id 4
      name Spine
      direction 0.000000 1.000000 0.000000
      length 0.000000
      axis 0.0 0.0 0.0 xyz
      dof rx ry rz
   end
   begin
      id 5
      name Spine_dum1
      direction 0.000000 1.000000 0.000000
      length 15.653875
      axis 0.0 0.0 0.0 xyz
   end
   begin
      id 6
      name Spine_dum2
      direction 0.000000 1.000000 0.000000
      length 10.329768
      axis 0.0 0.0 0.0 xyz
   end
   begin
      id 7
      name Spine_dum3
      direction 0.000000 1.000000 0.000000
      length 10.329768
      axis 0.0 0.0 0.0 xyz
   end
   begin
      id 8
      name Head
      direction 0.000000 1.000000 0.000000
      length 4.527550
      axis 0.0 0.0 0.0 xyz
      dof rx ry rz
   end
   begin
      id 9
      name LeftShoulder
      direction 1.000000 0.000000 0.000000
      length 6.996006
      axis 0.0 0.0 -90.0 xyz
      dof rx ry rz
   end
   begin
      id 10
      name LeftArm
      direction 1.000000 0.000000 0.000000
      length 10.209302
      axis 0.0 0.0 -90.0 xyz
      dof rx ry rz
   end
   begin
      id 11
      name LeftForeArm
      direction 1.000000 0.000000 0.000000
      length 8.563163
      axis 0.0 0.0 -90.0 xyz
      dof ry rz rx
   end
   begin
      id 12
      name LeftHand
      direction 0.000000 0.000000 0.000000
      length 0.000000
      axis 0.0 0.0 -90.0 xyz
      dof rx ry rz
   end
   begin
      id 13
      name LeftHand_dum1
      direction 0.000000 0.000000 0.000000
      length 0.000000
      axis 0.0 0.0 -90.0 xyz
   end
   begin
      id 14
      name LeftHand_dum2
      direction 1.000000 0.000000 0.000000
      length 3.937000
      axis 0.0 0.0 -90.0 xyz
   end
   begin
      id 15
      name LeftHandThumb1
      direction 0.000000 0.000000 1.000000
      length 3.937000
      axis 0.0 0.0 -90.0 xyz
      dof rx rz ry
   end
   begin
      id 16
      name RightShoulder
      direction -1.000000 0.000000 0.000000
      length 6.996006
      axis 0.0 0.0 90.0 xyz
      dof rx ry rz
   end
   begin
      id 17
      name RightArm
      direction -1.000000 0.000000 0.000000
      length 10.209302
      axis 0.0 0.0 90.0 xyz
      dof rx ry rz
   end
   begin
      id 18
      name RightForeArm
      direction -1.000000 0.000000 0.000000
      length 8.563163
      axis 0.0 0.0 90.0 xyz
      dof ry rz rx
   end
   begin
      id 19
      name RightHand
      direction 0.000000 0.000000 0.000000
      length 0.000000
      axis 0.0 0.0 90.0 xyz
      dof rx ry rz
   end
   begin
      id 20
      name RightHand_dum1
      direction 0.000000 0.000000 0.000000
      length 0.000000
      axis 0.0 0.0 90.0 xyz
   end
   begin
      id 21
      name RightHand_dum2
      direction -1.000000 0.000000 0.000000
      length 3.937000
      axis 0.0 0.0 90.0 xyz
   end
   begin
      id 22
      name RightHandThumb1
      direction 0.000000 0.000000 1.000000
      length 3.937000
      axis 0.0 0.0 90.0 xyz
      dof rx rz ry
   end
   begin
      id 23
      name LeftUpLeg
      direction 0.000000 -1.000000 0.000000
      length 16.346831
      axis 0.0 0.0 0.0 xyz
      dof rx ry rz
   end
   begin
      id 24
      name LeftLeg
      direction 0.000000 -1.000000 0.000000
      length 13.959795
      axis 0.0 0.0 0.0 xyz
      dof rx ry rz
   end
   begin
      id 25
      name LeftFoot
      direction 0.000000 -0.258819 0.965926
      length 5.165550
      axis 15.0 0.0 0.0 xyz
      dof rx ry rz
   end
   begin
      id 26
      name LeftToeBase
      direction 0.000000 0.000000 1.000000
      length 2.952750
      axis 0.0 0.0 0.0 xyz
      dof rx ry rz
   end
   begin
      id 27
      name RightUpLeg
      direction 0.000000 -1.000000 0.000000
      length 16.346831
      axis 0.0 0.0 0.0 xyz
      dof rx ry rz
   end
   begin
      id 28
      name RightLeg
      direction 0.000000 -1.000000 0.000000
      length 13.959795
      axis 0.0 0.0 0.0 xyz
      dof rx ry rz
   end
   begin
      id 29
      name RightFoot
      direction 0.000000 -0.258819 0.965926
      length 5.165550
      axis 15.0 0.0 0.0 xyz
      dof rx ry rz
   end
   begin
      id 30
      name RightToeBase
      direction 0.000000 0.000000 1.000000
      length 2.952750
      axis 0.0 0.0 0.0 xyz
      dof rx ry rz
   end
:hierarchy
   begin
      root Spine_dum LeftUpLeg_dum RightUpLeg_dum
      Spine_dum Spine
      LeftUpLeg_dum LeftUpLeg
      RightUpLeg_dum RightUpLeg
      Spine Spine_dum1 Spine_dum2 Spine_dum3
      Spine_dum1 Head
      Spine_dum2 LeftShoulder
      Spine_dum3 RightShoulder
      LeftShoulder LeftArm
      LeftArm LeftForeArm
      LeftForeArm LeftHand
      LeftHand LeftHand_dum1 LeftHand_dum2
      LeftHand_dum1 LeftHandThumb1
      RightShoulder RightArm
      RightArm RightForeArm
      RightForeArm RightHand
      RightHand RightHand_dum1 RightHand_dum2
      RightHand_dum1 RightHandThumb1
      LeftUpLeg LeftLeg
      LeftLeg LeftFoot
      LeftFoot LeftToeBase
      RightUpLeg RightLeg
      RightLeg RightFoot
      RightFoot RightToeBase
   end

# File created by Blade
# Date/Time:  Tue Jan 27 18:50:05 2015
# Frame Rate: 120.000 fps
#------------------------------------------------------
:FULLY-SPECIFIED
:DEGREES
891
root -1.157002 31.775811 -6.991922 -4.861217 24.654918 -7.844752
Spine 6.769131 -6.753687 0.727615
Head 9.310837 -4.666444 10.667346
LeftShoulder -14.454122 16.328831 14.832829
LeftArm 15.923377 -25.552398 -70.104710
LeftForeArm -10.598094 0.000000 115.898240
LeftHand -13.252702 -0.000000 22.361437
LeftHandThumb1 -26.253704 0.000000 33.147579
RightShoulder -11.856927 -2.257958 -7.647989
RightArm 18.357516 -35.790992 67.345094
RightForeArm -36.552848 -0.000000 28.243478
RightHand -14.726425 0.000000 11.685823
RightHandThumb1 -24.326973 -0.000000 -32.862282
LeftUpLeg -4.519265 3.086430 -3.041224
LeftLeg 21.716729 -0.000000 -0.000000
LeftFoot -29.900438 12.167886 -25.747888
LeftToeBase 14.210848 -0.000000 -0.000000
RightUpLeg -80.180831 -12.375549 12.373083
RightLeg 92.300420 -0.000000 -0.000000
RightFoot -17.390285 -21.268678 16.781299
RightToeBase 5.717393 -0.000000 -0.000000
892
root -1.121312 31.771490 -6.998721 -4.730723 24.266825 -7.698157
Spine 6.725063 -6.731757 0.668219
Head 9.331212 -4.788985 10.578613
LeftShoulder -14.536545 16.435254 14.703267
LeftArm 15.727598 -25.751049 -70.214421
LeftForeArm -10.505065 -0.000000 116.217721
LeftHand -13.296761 -0.000000 22.483979
LeftHandThumb1 -26.253704 0.000000 33.147579
RightShoulder -11.860724 -2.357243 -7.701357
RightArm 18.317553 -35.734134 67.441389
RightForeArm -36.653184 -0.000000 28.220378
RightHand -14.798237 -0.000000 11.604267
RightHandThumb1 -24.326973 -0.000000 -32.862282
LeftUpLeg -4.510852 3.180317 -3.192484
LeftLeg 21.699115 -0.000000 -0.000000
LeftFoot -29.930401 12.116537 -25.829463
LeftToeBase 14.311117 -0.000000 -0.000000
RightUpLeg -80.252452 -12.675471 12.160521
RightLeg 92.132325 -0.000000 -0.000000
RightFoot -17.419031 -21.369899 16.810562
RightToeBase 5.837007 -0.000000 -0.000000
893
root -1.086056 31.765448 -7.003648 -4.608834 23.850262 -7.556947
Spine 6.659132 -6.675165 0.605460
Head 9.350605 -4.911220 10.565873
LeftShoulder -14.554206 16.526028 14.622181
LeftArm 15.452528 -25.940853 -70.298168
LeftForeArm -10.444418 -0.000000 116.570968
LeftHand -13.365212 -0.000000 22.383451
LeftHandThumb1 -26.253704 0.000000 33.147579
RightShoulder -11.809070 -2.388139 -7.745530
RightArm 18.103051 -35.373257 67.651771
RightForeArm -36.400915 -0.000000 28.176107
RightHand -14.096587 -0.000000 12.195066
RightHandThumb1 -24.326973 -0.000000 -32.862282
LeftUpLeg -4.497447 3.270367 -3.336288
LeftLeg 21.696342 -0.000000 -0.000000
LeftFoot -30.036375 12.026315 -26.021034
LeftToeBase 14.500018 -0.000000 -0.000000
RightUpLeg -80.319665 -12.925986 11.954242
RightLeg 91.979146 -0.000000 -0.000000
RightFoot -17.424112 -21.441283 16.814014
RightToeBase 5.814446 -0.000000 -0.000000
894
root -1.052553 31.759970 -7.009014 -4.500326 23.453517 -7.438832
Spine 6.616354 -6.611320 0.564112
Head 9.393566 -5.033610 10.424066
LeftShoulder -14.598776 16.637728 14.523576
LeftArm 15.260911 -26.081690 -70.404532
LeftForeArm -10.309843 -0.000000 116.920616
LeftHand -13.341410 -0.000000 22.313595
LeftHandThumb1 -26.253704 0.000000 33.147579
RightShoulder -11.805785 -2.420100 -7.824339
RightArm 17.966851 -35.262371 67.797743
RightForeArm -36.469937 0.000000 28.163468
RightHand -14.119335 0.000000 12.229830
RightHandThumb1 -24.326973 -0.000000 -32.862282
LeftUpLeg -4.492386 3.309609 -3.469214
LeftLeg 21.701831 -0.000000 -0.000000
LeftFoot -30.035900 12.124955 -25.969451
LeftToeBase 14.230295 -0.000000 -0.000000
RightUpLeg -80.385307 -13.161514 11.780147
RightLeg 91.828553 -0.000000 -0.000000
RightFoot -17.473785 -21.608368 16.795168
RightToeBase 5.776031 -0.000000 -0.000000
895
root -1.024157 31.755354 -7.009276 -4.420871 23.046008 -7.362558
Spine 6.581453 -6.537507 0.540378
Head 9.415468 -5.143009 10.346406
LeftShoulder -14.629494 16.751989 14.459371
LeftArm 15.049563 -26.197537 -70.532501
LeftForeArm -10.283964 -0.000000 117.319909
LeftHand -13.348217 -0.000000 22.445453
LeftHandThumb1 -26.253704 0.000000 33.147579
RightShoulder -11.823770 -2.422839 -7.865558
RightArm 17.881463 -35.324422 67.864279
RightForeArm -36.548119 -0.000000 28.118851
RightHand -14.284217 -0.000000 12.118636
RightHandThumb1 -24.326973 -0.000000 -32.862282
LeftUpLeg -4.473816 3.342464 -3.548954
LeftLeg 21.723522 -0.000000 -0.000000
LeftFoot -30.129929 12.082586 -26.120422
LeftToeBase 14.460562 -0.000000 -0.000000
RightUpLeg -80.438088 -13.382709 11.683347
RightLeg 91.675225 -0.000000 -0.000000
RightFoot -17.283648 -21.843504 16.292840
RightToeBase 5.272851 -0.000000 -0.000000
896
root -0.999771 31.751453 -7.006924 -4.345283 22.641964 -7.319080
Spine 6.530841 -6.473484 0.531244
Head 9.465989 -5.253482 10.291402
LeftShoulder -14.682252 16.832435 14.424444
LeftArm 14.814358 -26.274111 -70.665996
LeftForeArm -10.158918 -0.000000 117.697058
LeftHand -13.280311 -0.000000 22.497612
LeftHandThumb1 -26.253704 0.000000 33.147579
RightShoulder -11.794014 -2.416063 -7.901413
RightArm 17.708172 -35.294141 67.980569
RightForeArm -36.597650 -0.000000 28.133556
RightHand -14.462449 0.000000 12.103939
RightHandThumb1 -24.326973 -0.000000 -32.862282
LeftUpLeg -4.471949 3.410416 -3.602908
LeftLeg 21.741731 -0.000000 -0.000000
LeftFoot -30.163501 12.191108 -26.016564
LeftToeBase 14.468590 -0.000000 -0.000000
RightUpLeg -80.494293 -13.567177 11.614603
RightLeg 91.552139 -0.000000 -0.000000
RightFoot -17.359134 -21.951140 16.286372
RightToeBase 5.369556 -0.000000 -0.000000
897
root -0.980178 31.750021 -7.001671 -4.259954 22.211823 -7.275395
Spine 6.459476 -6.341094 0.505517
Head 9.542156 -5.410640 10.242687
LeftShoulder -14.684667 16.915230 14.405759
LeftArm 14.567252 -26.351097 -70.788797
LeftForeArm -10.059224 -0.000000 118.110293
LeftHand -13.293091 -0.000000 22.375839
LeftHandThumb1 -26.253704 0.000000 33.147579
RightShoulder -11.827207 -2.495401 -7.879154
RightArm 17.694788 -35.222889 68.008512
RightForeArm -36.599229 0.000000 28.035609
RightHand -14.403549 -0.000000 12.174024
RightHandThumb1 -24.326973 -0.000000 -32.862282
LeftUpLeg -4.476163 3.521695 -3.639566
LeftLeg 21.750260 -0.000000 -0.000000
LeftFoot -30.164367 12.318159 -25.893463
LeftToeBase 13.665901 -0.000000 -0.000000
RightUpLeg -80.538677 -13.687557 11.548397
RightLeg 91.434441 -0.000000 -0.000000
RightFoot -17.399421 -22.019258 16.224838
RightToeBase 5.230479 -0.000000 -0.000000
